control3min_grf.mot
version=1
nRows=10
nColumns 19
inDegrees=yes
endheader
time	1_ground_force_vx	1_ground_force_vy	1_ground_force_vz	1_ground_force_px	1_ground_force_py	1_ground_force_pz	1_ground_torque_x	1_ground_torque_y	1_ground_torque_z	2_ground_force_vx	2_ground_force_vy	2_ground_force_vz	2_ground_force_px	2_ground_force_py	2_ground_force_pz	2_ground_torque_x	2_ground_torque_y	2_ground_torque_z
            2.502500	            1.092500	          388.500124	          -46.762068	           -0.193081	            0.006258	           -0.411737	            0.000711	            0.252797	           -0.030428	          -14.605073	          246.785880	           31.014796	           -0.166646	            0.006108	           -0.761047	           -0.019949	            0.337089	            0.042364
            2.503000	            1.090880	          393.008173	          -47.063739	           -0.192626	            0.006260	           -0.412223	            0.000785	            0.282986	           -0.033888	          -14.623333	          251.939188	           31.830972	           -0.166576	            0.006109	           -0.761193	           -0.020419	            0.351794	            0.044447
            2.503500	            0.903624	          399.322124	          -48.136773	           -0.192793	            0.006260	           -0.412256	            0.000492	            0.217575	           -0.026228	          -14.222623	          257.830779	           32.602668	           -0.167273	            0.006106	           -0.761024	           -0.019347	            0.350735	            0.044350
            2.504000	            0.442793	          404.372030	          -48.710115	           -0.192972	            0.006259	           -0.412029	            0.000254	            0.231918	           -0.027937	          -14.335871	          263.351725	           33.514054	           -0.167151	            0.006108	           -0.761484	           -0.020955	            0.384947	            0.048988
            2.504500	            0.164534	          410.684845	          -49.507785	           -0.193052	            0.006257	           -0.411625	            0.000119	            0.298051	           -0.035930	          -13.699438	          268.874709	           34.612833	           -0.167558	            0.006106	           -0.761417	           -0.017239	            0.338350	            0.043557
            2.505000	            0.299401	          415.915495	          -50.173553	           -0.193098	            0.006258	           -0.411849	            0.000205	            0.285015	           -0.034382	          -13.253871	          275.318891	           35.386480	           -0.167678	            0.006106	           -0.761459	           -0.013590	            0.282310	            0.036285
            2.505500	            0.434121	          421.326637	          -50.884400	           -0.193157	            0.006258	           -0.411783	            0.000289	            0.280039	           -0.033821	          -13.179034	          280.656206	           36.344057	           -0.167687	            0.006107	           -0.761758	           -0.012049	            0.256592	            0.033228
            2.506000	            0.570597	          427.095165	          -50.860007	           -0.193335	            0.006258	           -0.411689	            0.000378	            0.283181	           -0.033722	          -13.244541	          285.991279	           37.770975	           -0.167889	            0.006106	           -0.761737	           -0.016792	            0.362593	            0.047888
            2.506500	            0.887859	          432.688016	          -51.891523	           -0.193343	            0.006258	           -0.411810	            0.000580	            0.282444	           -0.033873	          -13.268180	          292.618306	           38.451623	           -0.168317	            0.006106	           -0.762210	           -0.016514	            0.364206	            0.047859
            2.507000	            1.068003	          436.658221	          -52.883803	           -0.193537	            0.006260	           -0.412290	            0.000893	            0.365127	           -0.044221	          -13.237349	          297.217322	           39.828944	           -0.167803	            0.006107	           -0.761867	           -0.017653	            0.396352	            0.053114
